<svg aria-hidden="true" style="width:0;height:0;position:absolute;overflow:hidden" xmlns="http://www.w3.org/2000/svg"><defs><symbol id="icon-facebook-square" viewBox="0 0 24 28"><path d="M19.5 2C21.984 2 24 4.016 24 6.5v15c0 2.484-2.016 4.5-4.5 4.5h-2.938v-9.297h3.109l.469-3.625h-3.578v-2.312c0-1.047.281-1.75 1.797-1.75L20.265 9V5.766c-.328-.047-1.469-.141-2.781-.141-2.766 0-4.672 1.687-4.672 4.781v2.672H9.687v3.625h3.125V26H4.499a4.502 4.502 0 0 1-4.5-4.5v-15c0-2.484 2.016-4.5 4.5-4.5h15z"/></symbol><symbol id="icon-instagram" viewBox="0 0 32 32"><path d="M16 2.881c4.275 0 4.781.019 6.462.094 1.563.069 2.406.331 2.969.55a4.952 4.952 0 0 1 1.837 1.194 5.015 5.015 0 0 1 1.2 1.838c.219.563.481 1.412.55 2.969.075 1.688.094 2.194.094 6.463s-.019 4.781-.094 6.463c-.069 1.563-.331 2.406-.55 2.969a4.94 4.94 0 0 1-1.194 1.837 5.02 5.02 0 0 1-1.837 1.2c-.563.219-1.413.481-2.969.55-1.688.075-2.194.094-6.463.094s-4.781-.019-6.463-.094c-1.563-.069-2.406-.331-2.969-.55a4.952 4.952 0 0 1-1.838-1.194 5.02 5.02 0 0 1-1.2-1.837c-.219-.563-.481-1.413-.55-2.969-.075-1.688-.094-2.194-.094-6.463s.019-4.781.094-6.463c.069-1.563.331-2.406.55-2.969a4.964 4.964 0 0 1 1.194-1.838 5.015 5.015 0 0 1 1.838-1.2c.563-.219 1.412-.481 2.969-.55 1.681-.075 2.188-.094 6.463-.094zM16 0c-4.344 0-4.887.019-6.594.094-1.7.075-2.869.35-3.881.744-1.056.412-1.95.956-2.837 1.85a7.833 7.833 0 0 0-1.85 2.831C.444 6.538.169 7.7.094 9.4.019 11.113 0 11.656 0 16s.019 4.887.094 6.594c.075 1.7.35 2.869.744 3.881.413 1.056.956 1.95 1.85 2.837a7.82 7.82 0 0 0 2.831 1.844c1.019.394 2.181.669 3.881.744 1.706.075 2.25.094 6.594.094s4.888-.019 6.594-.094c1.7-.075 2.869-.35 3.881-.744 1.05-.406 1.944-.956 2.831-1.844s1.438-1.781 1.844-2.831c.394-1.019.669-2.181.744-3.881.075-1.706.094-2.25.094-6.594s-.019-4.887-.094-6.594c-.075-1.7-.35-2.869-.744-3.881a7.506 7.506 0 0 0-1.831-2.844A7.82 7.82 0 0 0 26.482.843C25.463.449 24.301.174 22.601.099c-1.712-.081-2.256-.1-6.6-.1z"/><path d="M16 7.781c-4.537 0-8.219 3.681-8.219 8.219s3.681 8.219 8.219 8.219 8.219-3.681 8.219-8.219A8.221 8.221 0 0 0 16 7.781zm0 13.55a5.331 5.331 0 1 1 0-10.663 5.331 5.331 0 0 1 0 10.663zM26.462 7.456a1.919 1.919 0 1 1-3.838 0 1.919 1.919 0 0 1 3.838 0z"/></symbol><symbol id="icon-tesla" viewBox="0 0 32 32"><path style="fill:var(--color1, )" d="m16 7.149 3.3-4.035s5.66.12 11.295 2.739c-1.443 2.181-4.308 3.251-4.308 3.251-.195-1.919-1.539-2.387-5.805-2.387L16.001 32 11.493 6.712c-4.24 0-5.584.472-5.78 2.389 0 0-2.861-1.06-4.305-3.24C7.041 3.241 12.701 3.12 12.701 3.12l3.3 4.029-.005.003h.005zm0-5.198c4.553-.04 9.768.704 15.104 3.04.713-1.291.896-1.86.896-1.86C26.167.816 20.704.02 16 0 11.296.02 5.833.813 0 3.132c0 0 .26.7.896 1.861C6.232 2.652 11.447 1.913 16 1.946z"/></symbol><symbol id="icon-key2" viewBox="0 0 32 32"><path d="m31.317 9.82-3.16-3.159-2.818-2.818-3.16-3.159c-.775-.775-2.155-.911-3.067-.304l-8.639 5.759c-.912.608-1.257 1.907-.767 2.887l2.203 4.405c.067.135.145.278.231.427L.998 25l-1 7h6v-2h4v-4h4v-4h4v-2.225c.2.119.392.226.569.314l4.405 2.203c.98.49 2.279.145 2.887-.767l5.759-8.639c.608-.912.471-2.292-.304-3.066zM4.707 26.707l-1.414-1.414 9.737-9.737 1.414 1.414-9.737 9.737zm23.95-13.464-1.414 1.414a1.003 1.003 0 0 1-1.414 0l-8.485-8.485a1.003 1.003 0 0 1 0-1.414l1.414-1.414a1.003 1.003 0 0 1 1.414 0l8.485 8.485a1.003 1.003 0 0 1 0 1.414z"/></symbol><symbol id="navigation" viewBox="0 0 60 60"><path d="M44.394 13.091 8.633 29.503a1 1 0 0 0 .252 1.895l15.833 2.653 1.809 14.95a1.002 1.002 0 0 0 1.889.324l17.291-34.882a1 1 0 0 0-1.313-1.352zM28.11 45.438l-1.496-12.369a1.002 1.002 0 0 0-.828-.866l-13.362-2.239L42.66 16.087 28.11 45.438z"/><path d="M30 0C13.458 0 0 13.458 0 30s13.458 30 30 30 30-13.458 30-30S46.542 0 30 0zm0 58C14.561 58 2 45.439 2 30S14.561 2 30 2s28 12.561 28 28-12.561 28-28 28z"/></symbol><symbol id="acum" viewBox="0 0 24 24"><path d="M22 8a2 2 0 0 0-2-2h-1.5V4.8a1.37 1.37 0 0 0-.05-.53.58.58 0 0 0-.22-.22 1.37 1.37 0 0 0-.53 0h-2.4a1.37 1.37 0 0 0-.53 0 .58.58 0 0 0-.22.22 1.37 1.37 0 0 0-.05.53V6h-5V4.8a1.37 1.37 0 0 0-.05-.53.58.58 0 0 0-.22-.22A1.37 1.37 0 0 0 8.7 4H6.3a1.37 1.37 0 0 0-.53 0 .58.58 0 0 0-.22.22 1.37 1.37 0 0 0 0 .53V6H4a2 2 0 0 0-2 2v10a2 2 0 0 0 2 2h16a2 2 0 0 0 2-2ZM6.75 16.5l-2-2.5H6v-4h8v1.5H7.5V14h1.25ZM18 12v4h-8v-1.5h6.5V12h-1.25l2-2.5 2 2.5Z" fill-rule="evenodd"/></symbol><symbol id="retrofit" viewBox="0 0 24 24"><path d="M14 2.2V1h-4v1.2a10 10 0 1 0 4 0ZM12 20a8 8 0 1 1 8-8 8 8 0 0 1-8 8Zm-4.25-9.75A1.75 1.75 0 1 0 9.5 12a1.75 1.75 0 0 0-1.75-1.75Zm0 2.5A.75.75 0 1 1 8.5 12a.76.76 0 0 1-.75.75ZM12 14.5a1.75 1.75 0 1 0 1.75 1.75A1.75 1.75 0 0 0 12 14.5Zm0 2.5a.75.75 0 1 1 .75-.75.76.76 0 0 1-.75.75Zm4.25-6.75A1.75 1.75 0 1 0 18 12a1.75 1.75 0 0 0-1.75-1.75Zm0 2.5A.75.75 0 1 1 17 12a.76.76 0 0 1-.75.75ZM12 9a1.5 1.5 0 1 0-1.5-1.5A1.5 1.5 0 0 0 12 9Zm0-2a.5.5 0 1 1-.5.5.5.5 0 0 1 .5-.5Z" fill-rule="evenodd"/></symbol><symbol id="tegra" viewBox="0 0 24 24"><path fill-rule="evenodd" clip-rule="evenodd" d="M14 8a2 2 0 0 1 2 2v4a2 2 0 0 1-2 2h-4a2 2 0 0 1-2-2v-4a2 2 0 0 1 2-2h4Zm-1 2a1 1 0 0 1 1 1v2a1 1 0 0 1-1 1h-2a1 1 0 0 1-1-1v-2a1 1 0 0 1 1-1h2Z" fill="#0F0F0F"/><path fill-rule="evenodd" clip-rule="evenodd" d="M11 2a1 1 0 1 1 2 0v2h2V2a1 1 0 1 1 2 0v2a3 3 0 0 1 3 3h2a1 1 0 1 1 0 2h-2v2h2a1 1 0 1 1 0 2h-2v2h2a1 1 0 1 1 0 2h-2a3 3 0 0 1-3 3v2a1 1 0 1 1-2 0v-2h-2v2a1 1 0 1 1-2 0v-2H9v2a1 1 0 1 1-2 0v-2a3 3 0 0 1-3-3H2a1 1 0 1 1 0-2h2v-2H2a1 1 0 1 1 0-2h2V9H2a1 1 0 1 1 0-2h2a3 3 0 0 1 3-3V2a1 1 0 1 1 2 0v2h2V2Zm6 4a1 1 0 0 1 1 1v10a1 1 0 0 1-1 1H7a1 1 0 0 1-1-1V7a1 1 0 0 1 1-1h10Z" fill="#0F0F0F"/></symbol><symbol id="radio" viewBox="0 0 24 24"><path d="M19 4H9c-.93 0-1.395 0-1.776.102a3 3 0 0 0-2.122 2.122C5 6.605 5 7.089 5 8.019m0 0C5.314 8 5.702 8 6.2 8h11.6c1.12 0 1.68 0 2.108.218a2 2 0 0 1 .874.874C21 9.52 21 10.08 21 11.2v5.6c0 1.12 0 1.68-.218 2.108a2 2 0 0 1-.874.874C19.48 20 18.92 20 17.8 20H6.2c-1.12 0-1.68 0-2.108-.218a2 2 0 0 1-.874-.874C3 18.48 3 17.92 3 16.8v-5.6c0-1.12 0-1.68.218-2.108a2 2 0 0 1 .874-.874c.238-.121.516-.175.908-.199ZM14 12h4m-4 4h4m-8-2a2 2 0 1 1-4 0 2 2 0 0 1 4 0Z" stroke="#000" stroke-width="2" stroke-linecap="round" stroke-linejoin="round"/></symbol><symbol id="icon-telegram" viewBox="0 0 32 32"><path d="M16 0C7.162 0 0 7.162 0 16s7.162 16 16 16 16-7.163 16-16S24.837 0 16 0zm7.863 10.969-2.625 12.369c-.181.881-.712 1.087-1.45.681l-4-2.956-1.919 1.869c-.225.219-.4.4-.8.4-.519 0-.431-.194-.606-.688L11.1 18.169l-3.956-1.231c-.856-.262-.862-.85.194-1.269l15.412-5.95c.7-.319 1.381.169 1.113 1.25z"/></symbol><symbol id="icon-viber" viewBox="0 0 24 24"><path d="M13 4a1 1 0 1 0 0 2c1.273 0 2.256.42 2.918 1.082C16.58 7.744 17 8.727 17 10a1 1 0 1 0 2 0c0-1.727-.58-3.244-1.668-4.332C16.244 4.58 14.727 4 13 4ZM5.014 8.006c.114-.904 1.289-2.132 2.22-1.996V6.01c.779.148 1.418 1.32 1.84 2.093.069.127.132.244.19.343.286.509.1 1.025-.167 1.243L9 9.765c-.356.283-.819.65-.71 1.018C8.5 11.5 11 14 12.23 14.711c.376.217.669-.205.92-.567.059-.086.116-.168.17-.237.21-.28.727-.447 1.235-.171.759.442 1.474.956 2.135 1.534.33.276.408.684.179 1.115-.403.76-1.569 1.76-2.415 1.557C12.976 17.587 7 15.27 5.08 8.558c-.1-.296-.084-.42-.07-.528l.004-.024Z"/><path d="M13 7a1 1 0 1 0 0 2c.175 0 .433.097.668.332.235.235.332.493.332.668a1 1 0 1 0 2 0c0-.825-.402-1.567-.918-2.082C14.567 7.403 13.825 7 13 7Z"/><path fill-rule="evenodd" clip-rule="evenodd" d="M7.517 23.831c.029.016.058.03.088.043.543.233 1.213-.288 2.552-1.33L11.5 21.5c2.688.089 5.014-.264 6.812-.893a7 7 0 0 0 4.295-4.295c.97-2.771.97-7.853 0-10.624a7 7 0 0 0-4.295-4.295c-3.202-1.12-9.482-1.1-12.624 0a7 7 0 0 0-4.295 4.295c-.97 2.77-.97 7.853 0 10.624a7 7 0 0 0 4.295 4.295c.395.138.836.29 1.312.393 0 1.697 0 2.546.517 2.831ZM9 20.911v-1.12a.498.498 0 0 0-.394-.488c-.762-.163-1.52-.325-2.257-.584a5 5 0 0 1-3.068-3.068c-.382-1.091-.615-2.806-.615-4.651 0-1.845.233-3.56.615-4.652A5 5 0 0 1 6.349 3.28c1.267-.443 3.368-.717 5.63-.72 2.263-.002 4.377.267 5.672.72a5 5 0 0 1 3.068 3.068c.382 1.092.615 2.807.615 4.652 0 1.845-.233 3.56-.615 4.651a5 5 0 0 1-3.068 3.068c-2.131.746-4.392.83-6.627.764a.503.503 0 0 0-.324.105L9 20.911Z"/></symbol></defs></svg>