<svg aria-hidden="true" style="width:0;height:0;position:absolute;overflow:hidden" xmlns="http://www.w3.org/2000/svg"><defs><symbol id="icon-facebook-square" viewBox="0 0 24 28"><path d="M19.5 2C21.984 2 24 4.016 24 6.5v15c0 2.484-2.016 4.5-4.5 4.5h-2.938v-9.297h3.109l.469-3.625h-3.578v-2.312c0-1.047.281-1.75 1.797-1.75L20.265 9V5.766c-.328-.047-1.469-.141-2.781-.141-2.766 0-4.672 1.687-4.672 4.781v2.672H9.687v3.625h3.125V26H4.499a4.502 4.502 0 0 1-4.5-4.5v-15c0-2.484 2.016-4.5 4.5-4.5h15z"/></symbol><symbol id="icon-instagram" viewBox="0 0 32 32"><path d="M16 2.881c4.275 0 4.781.019 6.462.094 1.563.069 2.406.331 2.969.55a4.952 4.952 0 0 1 1.837 1.194 5.015 5.015 0 0 1 1.2 1.838c.219.563.481 1.412.55 2.969.075 1.688.094 2.194.094 6.463s-.019 4.781-.094 6.463c-.069 1.563-.331 2.406-.55 2.969a4.94 4.94 0 0 1-1.194 1.837 5.02 5.02 0 0 1-1.837 1.2c-.563.219-1.413.481-2.969.55-1.688.075-2.194.094-6.463.094s-4.781-.019-6.463-.094c-1.563-.069-2.406-.331-2.969-.55a4.952 4.952 0 0 1-1.838-1.194 5.02 5.02 0 0 1-1.2-1.837c-.219-.563-.481-1.413-.55-2.969-.075-1.688-.094-2.194-.094-6.463s.019-4.781.094-6.463c.069-1.563.331-2.406.55-2.969a4.964 4.964 0 0 1 1.194-1.838 5.015 5.015 0 0 1 1.838-1.2c.563-.219 1.412-.481 2.969-.55 1.681-.075 2.188-.094 6.463-.094zM16 0c-4.344 0-4.887.019-6.594.094-1.7.075-2.869.35-3.881.744-1.056.412-1.95.956-2.837 1.85a7.833 7.833 0 0 0-1.85 2.831C.444 6.538.169 7.7.094 9.4.019 11.113 0 11.656 0 16s.019 4.887.094 6.594c.075 1.7.35 2.869.744 3.881.413 1.056.956 1.95 1.85 2.837a7.82 7.82 0 0 0 2.831 1.844c1.019.394 2.181.669 3.881.744 1.706.075 2.25.094 6.594.094s4.888-.019 6.594-.094c1.7-.075 2.869-.35 3.881-.744 1.05-.406 1.944-.956 2.831-1.844s1.438-1.781 1.844-2.831c.394-1.019.669-2.181.744-3.881.075-1.706.094-2.25.094-6.594s-.019-4.887-.094-6.594c-.075-1.7-.35-2.869-.744-3.881a7.506 7.506 0 0 0-1.831-2.844A7.82 7.82 0 0 0 26.482.843C25.463.449 24.301.174 22.601.099c-1.712-.081-2.256-.1-6.6-.1z"/><path d="M16 7.781c-4.537 0-8.219 3.681-8.219 8.219s3.681 8.219 8.219 8.219 8.219-3.681 8.219-8.219A8.221 8.221 0 0 0 16 7.781zm0 13.55a5.331 5.331 0 1 1 0-10.663 5.331 5.331 0 0 1 0 10.663zM26.462 7.456a1.919 1.919 0 1 1-3.838 0 1.919 1.919 0 0 1 3.838 0z"/></symbol><symbol id="icon-tesla" viewBox="0 0 32 32"><path style="fill:var(--color1, )" d="m16 7.149 3.3-4.035s5.66.12 11.295 2.739c-1.443 2.181-4.308 3.251-4.308 3.251-.195-1.919-1.539-2.387-5.805-2.387L16.001 32 11.493 6.712c-4.24 0-5.584.472-5.78 2.389 0 0-2.861-1.06-4.305-3.24C7.041 3.241 12.701 3.12 12.701 3.12l3.3 4.029-.005.003h.005zm0-5.198c4.553-.04 9.768.704 15.104 3.04.713-1.291.896-1.86.896-1.86C26.167.816 20.704.02 16 0 11.296.02 5.833.813 0 3.132c0 0 .26.7.896 1.861C6.232 2.652 11.447 1.913 16 1.946z"/></symbol></defs></svg>