<svg aria-hidden="true" style="position: absolute; width: 0; height: 0; overflow: hidden;" version="1.1" xmlns="http://www.w3.org/2000/svg" xmlns:xlink="http://www.w3.org/1999/xlink">
<defs>
<symbol id="icon-facebook-square" viewBox="0 0 24 28">
<path d="M19.5 2c2.484 0 4.5 2.016 4.5 4.5v15c0 2.484-2.016 4.5-4.5 4.5h-2.938v-9.297h3.109l0.469-3.625h-3.578v-2.312c0-1.047 0.281-1.75 1.797-1.75l1.906-0.016v-3.234c-0.328-0.047-1.469-0.141-2.781-0.141-2.766 0-4.672 1.687-4.672 4.781v2.672h-3.125v3.625h3.125v9.297h-8.313c-2.484 0-4.5-2.016-4.5-4.5v-15c0-2.484 2.016-4.5 4.5-4.5h15z"></path>
</symbol>
<symbol id="icon-instagram" viewBox="0 0 32 32">
<path d="M16 2.881c4.275 0 4.781 0.019 6.462 0.094 1.563 0.069 2.406 0.331 2.969 0.55 0.744 0.288 1.281 0.638 1.837 1.194 0.563 0.563 0.906 1.094 1.2 1.838 0.219 0.563 0.481 1.412 0.55 2.969 0.075 1.688 0.094 2.194 0.094 6.463s-0.019 4.781-0.094 6.463c-0.069 1.563-0.331 2.406-0.55 2.969-0.288 0.744-0.637 1.281-1.194 1.837-0.563 0.563-1.094 0.906-1.837 1.2-0.563 0.219-1.413 0.481-2.969 0.55-1.688 0.075-2.194 0.094-6.463 0.094s-4.781-0.019-6.463-0.094c-1.563-0.069-2.406-0.331-2.969-0.55-0.744-0.288-1.281-0.637-1.838-1.194-0.563-0.563-0.906-1.094-1.2-1.837-0.219-0.563-0.481-1.413-0.55-2.969-0.075-1.688-0.094-2.194-0.094-6.463s0.019-4.781 0.094-6.463c0.069-1.563 0.331-2.406 0.55-2.969 0.288-0.744 0.638-1.281 1.194-1.838 0.563-0.563 1.094-0.906 1.838-1.2 0.563-0.219 1.412-0.481 2.969-0.55 1.681-0.075 2.188-0.094 6.463-0.094zM16 0c-4.344 0-4.887 0.019-6.594 0.094-1.7 0.075-2.869 0.35-3.881 0.744-1.056 0.412-1.95 0.956-2.837 1.85-0.894 0.888-1.438 1.781-1.85 2.831-0.394 1.019-0.669 2.181-0.744 3.881-0.075 1.713-0.094 2.256-0.094 6.6s0.019 4.887 0.094 6.594c0.075 1.7 0.35 2.869 0.744 3.881 0.413 1.056 0.956 1.95 1.85 2.837 0.887 0.887 1.781 1.438 2.831 1.844 1.019 0.394 2.181 0.669 3.881 0.744 1.706 0.075 2.25 0.094 6.594 0.094s4.888-0.019 6.594-0.094c1.7-0.075 2.869-0.35 3.881-0.744 1.050-0.406 1.944-0.956 2.831-1.844s1.438-1.781 1.844-2.831c0.394-1.019 0.669-2.181 0.744-3.881 0.075-1.706 0.094-2.25 0.094-6.594s-0.019-4.887-0.094-6.594c-0.075-1.7-0.35-2.869-0.744-3.881-0.394-1.063-0.938-1.956-1.831-2.844-0.887-0.887-1.781-1.438-2.831-1.844-1.019-0.394-2.181-0.669-3.881-0.744-1.712-0.081-2.256-0.1-6.6-0.1v0z"></path>
<path d="M16 7.781c-4.537 0-8.219 3.681-8.219 8.219s3.681 8.219 8.219 8.219 8.219-3.681 8.219-8.219c0-4.537-3.681-8.219-8.219-8.219zM16 21.331c-2.944 0-5.331-2.387-5.331-5.331s2.387-5.331 5.331-5.331c2.944 0 5.331 2.387 5.331 5.331s-2.387 5.331-5.331 5.331z"></path>
<path d="M26.462 7.456c0 1.060-0.859 1.919-1.919 1.919s-1.919-0.859-1.919-1.919c0-1.060 0.859-1.919 1.919-1.919s1.919 0.859 1.919 1.919z"></path>
</symbol>
<symbol id="icon-tesla" viewBox="0 0 32 32">
<path fill="" style="fill: var(--color1, )" d="M16 7.149l3.3-4.035c0 0 5.66 0.12 11.295 2.739-1.443 2.181-4.308 3.251-4.308 3.251-0.195-1.919-1.539-2.387-5.805-2.387l-4.481 25.283-4.508-25.288c-4.24 0-5.584 0.472-5.78 2.389 0 0-2.861-1.060-4.305-3.24 5.633-2.62 11.293-2.741 11.293-2.741l3.3 4.029-0.005 0.003h0.005zM16 1.951c4.553-0.040 9.768 0.704 15.104 3.040 0.713-1.291 0.896-1.86 0.896-1.86-5.833-2.315-11.296-3.111-16-3.131-4.704 0.020-10.167 0.813-16 3.132 0 0 0.26 0.7 0.896 1.861 5.336-2.341 10.551-3.080 15.104-3.047z"></path>
</symbol>
<symbol id="icon-key2" viewBox="0 0 32 32">
<path d="M31.317 9.82l-3.16-3.159c-0.775-0.775-2.043-2.043-2.818-2.818l-3.16-3.159c-0.775-0.775-2.155-0.911-3.067-0.304l-8.639 5.759c-0.912 0.608-1.257 1.907-0.767 2.887l2.203 4.405c0.067 0.135 0.145 0.278 0.231 0.427l-11.142 11.142-1 7h6v-2h4v-4h4v-4h4v-2.225c0.2 0.119 0.392 0.226 0.569 0.314l4.405 2.203c0.98 0.49 2.279 0.145 2.887-0.767l5.759-8.639c0.608-0.912 0.471-2.292-0.304-3.066zM4.707 26.707l-1.414-1.414 9.737-9.737 1.414 1.414-9.737 9.737zM28.657 13.243l-1.414 1.414c-0.389 0.389-1.025 0.389-1.414 0l-8.485-8.485c-0.389-0.389-0.389-1.025 0-1.414l1.414-1.414c0.389-0.389 1.025-0.389 1.414 0l8.485 8.485c0.389 0.389 0.389 1.025 0 1.414z"></path>
</symbol>
<symbol  id="navigation" viewBox="0 0 60 60">
	<path d="M44.394,13.091L8.633,29.503c-0.399,0.184-0.632,0.605-0.574,1.041s0.393,0.782,0.826,0.854l15.833,2.653l1.809,14.95
		c0.054,0.438,0.389,0.791,0.824,0.865c0.057,0.01,0.113,0.015,0.169,0.015c0.375,0,0.726-0.211,0.896-0.556l17.291-34.882
		c0.188-0.38,0.117-0.837-0.178-1.141S44.776,12.914,44.394,13.091z M28.11,45.438l-1.496-12.369
		c-0.054-0.44-0.391-0.793-0.828-0.866l-13.362-2.239L42.66,16.087L28.11,45.438z"/>
	<path d="M30,0C13.458,0,0,13.458,0,30s13.458,30,30,30s30-13.458,30-30S46.542,0,30,0z M30,58C14.561,58,2,45.439,2,30
		S14.561,2,30,2s28,12.561,28,28S45.439,58,30,58z"/>
</symbol>
<symbol id="acum" viewBox="0 0 24 24">
<path d="M22,8a2,2,0,0,0-2-2H18.5V4.8a1.37,1.37,0,0,0-.05-.53.58.58,0,0,0-.22-.22,1.37,1.37,0,0,0-.53,0H15.3a1.37,1.37,0,0,0-.53,0,.58.58,0,0,0-.22.22,1.37,1.37,0,0,0-.05.53V6h-5V4.8a1.37,1.37,0,0,0-.05-.53.58.58,0,0,0-.22-.22A1.37,1.37,0,0,0,8.7,4H6.3a1.37,1.37,0,0,0-.53,0,.58.58,0,0,0-.22.22,1.37,1.37,0,0,0,0,.53V6H4A2,2,0,0,0,2,8V18a2,2,0,0,0,2,2H20a2,2,0,0,0,2-2ZM6.75,16.5l-2-2.5H6V10h8v1.5H7.5V14H8.75ZM18,12v4H10V14.5h6.5V12H15.25l2-2.5,2,2.5Z" fill-rule="evenodd"/>
</symbol>
<symbol id="retrofit" viewBox="0 0 24 24">
<path d="M14,2.2V1H10V2.2a10,10,0,1,0,4,0ZM12,20a8,8,0,1,1,8-8A8,8,0,0,1,12,20ZM7.75,10.25A1.75,1.75,0,1,0,9.5,12,1.75,1.75,0,0,0,7.75,10.25Zm0,2.5A.75.75,0,1,1,8.5,12,.76.76,0,0,1,7.75,12.75ZM12,14.5a1.75,1.75,0,1,0,1.75,1.75A1.75,1.75,0,0,0,12,14.5ZM12,17a.75.75,0,1,1,.75-.75A.76.76,0,0,1,12,17Zm4.25-6.75A1.75,1.75,0,1,0,18,12,1.75,1.75,0,0,0,16.25,10.25Zm0,2.5A.75.75,0,1,1,17,12,.76.76,0,0,1,16.25,12.75ZM12,9a1.5,1.5,0,1,0-1.5-1.5A1.5,1.5,0,0,0,12,9Zm0-2a.5.5,0,1,1-.5.5A.5.5,0,0,1,12,7Z" fill-rule="evenodd"/>
</symbol>
<symbol id="tegra" viewBox="0 0 24 24">
<path fill-rule="evenodd" clip-rule="evenodd" d="M14 8C15.1046 8 16 8.89543 16 10V14C16 15.1046 15.1046 16 14 16H10C8.89543 16 8 15.1046 8 14V10C8 8.89543 8.89543 8 10 8H14ZM13 10C13.5523 10 14 10.4477 14 11V13C14 13.5523 13.5523 14 13 14H11C10.4477 14 10 13.5523 10 13V11C10 10.4477 10.4477 10 11 10H13Z" fill="#0F0F0F"/>
<path fill-rule="evenodd" clip-rule="evenodd" d="M11 2C11 1.44772 11.4477 1 12 1C12.5523 1 13 1.44772 13 2V4H15V2C15 1.44772 15.4477 1 16 1C16.5523 1 17 1.44772 17 2V4C18.6569 4 20 5.34315 20 7H22C22.5523 7 23 7.44771 23 8C23 8.55229 22.5523 9 22 9H20V11H22C22.5523 11 23 11.4477 23 12C23 12.5523 22.5523 13 22 13H20V15H22C22.5523 15 23 15.4477 23 16C23 16.5523 22.5523 17 22 17H20C20 18.6569 18.6569 20 17 20V22C17 22.5523 16.5523 23 16 23C15.4477 23 15 22.5523 15 22V20H13V22C13 22.5523 12.5523 23 12 23C11.4477 23 11 22.5523 11 22V20H9V22C9 22.5523 8.55229 23 8 23C7.44771 23 7 22.5523 7 22V20C5.34315 20 4 18.6569 4 17H2C1.44772 17 1 16.5523 1 16C1 15.4477 1.44772 15 2 15H4V13H2C1.44772 13 1 12.5523 1 12C1 11.4477 1.44772 11 2 11H4V9H2C1.44772 9 1 8.55229 1 8C1 7.44771 1.44772 7 2 7H4C4 5.34315 5.34315 4 7 4V2C7 1.44772 7.44771 1 8 1C8.55229 1 9 1.44772 9 2V4H11V2ZM17 6C17.5523 6 18 6.44772 18 7V17C18 17.5523 17.5523 18 17 18H7C6.44771 18 6 17.5523 6 17V7C6 6.44771 6.44772 6 7 6H17Z" fill="#0F0F0F"/>
</symbol>
<symbol id="radio" viewBox="0 0 24 24">
<path d="M19 4H9C8.07003 4 7.60504 4 7.22354 4.10222C6.18827 4.37962 5.37962 5.18827 5.10222 6.22354C5 6.60504 5 7.08922 5 8.01919M5 8.01919C5.31428 8 5.70173 8 6.2 8H17.8C18.9201 8 19.4802 8 19.908 8.21799C20.2843 8.40973 20.5903 8.71569 20.782 9.09202C21 9.51984 21 10.0799 21 11.2V16.8C21 17.9201 21 18.4802 20.782 18.908C20.5903 19.2843 20.2843 19.5903 19.908 19.782C19.4802 20 18.9201 20 17.8 20H6.2C5.07989 20 4.51984 20 4.09202 19.782C3.71569 19.5903 3.40973 19.2843 3.21799 18.908C3 18.4802 3 17.9201 3 16.8V11.2C3 10.0799 3 9.51984 3.21799 9.09202C3.40973 8.71569 3.71569 8.40973 4.09202 8.21799C4.32953 8.09697 4.60779 8.04314 5 8.01919ZM14 12H18M14 16H18M10 14C10 15.1046 9.10457 16 8 16C6.89543 16 6 15.1046 6 14C6 12.8954 6.89543 12 8 12C9.10457 12 10 12.8954 10 14Z" stroke="#000000" stroke-width="2" stroke-linecap="round" stroke-linejoin="round"/>
</symbol>
</defs>
</svg>
